HIERARCHY
ROOT reference
{
  OFFSET 0 0 0
  CHANNELS 6 Xposition Yposition Zposition Zrotation Xrotation Yrotation
  JOINT Hips
  {
    OFFSET 349.773 89.4622 219.413
    CHANNELS 3 Zrotation Xrotation Yrotation
    JOINT RightUpLeg
    {
      OFFSET -9.25229 -1.56476 -0.00486621
      CHANNELS 3 Zrotation Xrotation Yrotation
      JOINT RightLeg
      {
        OFFSET 0.0546168 -41.8841 0.068862
        CHANNELS 3 Zrotation Xrotation Yrotation
        JOINT RightFoot
        {
          OFFSET -1.63893 -40.8901 3.53979
          CHANNELS 3 Zrotation Xrotation Yrotation
          End Site
          {
            OFFSET 0 -7.69 17.5
          }
        }
      }
    }
    JOINT LeftUpLeg
    {
      OFFSET 9.30241 -1.63853 -0.0284428
      CHANNELS 3 Zrotation Xrotation Yrotation
      JOINT LeftLeg
      {
        OFFSET 0.0539686 -41.842 -0.0517406
        CHANNELS 3 Zrotation Xrotation Yrotation
        JOINT LeftFoot
        {
          OFFSET 1.12518 -42.5382 -2.5849
          CHANNELS 3 Zrotation Xrotation Yrotation
          End Site
          {
            OFFSET 0 -7.69 17.5
          }
        }
      }
    }
    JOINT Spine
    {
      OFFSET 0.0144198 14.3187 0.0981135
      CHANNELS 3 Zrotation Xrotation Yrotation
      JOINT Spine1
      {
        OFFSET 0.0112165 9.7169 0.0514987
        CHANNELS 3 Zrotation Xrotation Yrotation
        JOINT Spine2
        {
          OFFSET 0.0255827 10.1205 -0.00638435
          CHANNELS 3 Zrotation Xrotation Yrotation
          JOINT Spine3
          {
            OFFSET -0.00190646 9.72552 0.024249
            CHANNELS 3 Zrotation Xrotation Yrotation
            JOINT Neck
            {
              OFFSET -0.136438 10.3681 0.0553958
              CHANNELS 3 Zrotation Xrotation Yrotation
              JOINT Head
              {
                OFFSET 0.0264476 9.5071 0.170402
                CHANNELS 3 Zrotation Xrotation Yrotation
                End Site
                {
                  OFFSET 0 15.95 0
                }
              }
            }
            JOINT RightShoulder
            {
              OFFSET -3.1747 6.92483 0.00547946
              CHANNELS 3 Zrotation Xrotation Yrotation
              JOINT RightArm
              {
                OFFSET -12.7755 -0.0136287 0.0362428
                CHANNELS 3 Zrotation Xrotation Yrotation
                JOINT RightForeArm
                {
                  OFFSET -26.5642 -0.108975 -0.0233747
                  CHANNELS 3 Zrotation Xrotation Yrotation
                  JOINT RightHand
                  {
                    OFFSET -25.905 -0.185223 0.00356295
                    CHANNELS 3 Zrotation Xrotation Yrotation
                    JOINT RightHandThumb1
                    {
                      OFFSET -2.48905 0.190105 3.12053
                      CHANNELS 3 Zrotation Xrotation Yrotation
                      JOINT RightHandThumb2
                      {
                        OFFSET -3.68274 0 0
                        CHANNELS 3 Zrotation Xrotation Yrotation
                        JOINT RightHandThumb3
                        {
                          OFFSET -2.55832 0 0
                          CHANNELS 3 Zrotation Xrotation Yrotation
                          End Site
                          {
                            OFFSET -2.194 0 0
                          }
                        }
                      }
                    }
                    JOINT RightInHandIndex
                    {
                      OFFSET -3.22368 0.508421 1.97842
                      CHANNELS 3 Zrotation Xrotation Yrotation
                      JOINT RightHandIndex1
                      {
                        OFFSET -5.21684 -0.091368 0.999158
                        CHANNELS 3 Zrotation Xrotation Yrotation
                        JOINT RightHandIndex2
                        {
                          OFFSET -3.61937 0 0
                          CHANNELS 3 Zrotation Xrotation Yrotation
                          JOINT RightHandIndex3
                          {
                            OFFSET -2.0521 0 0
                            CHANNELS 3 Zrotation Xrotation Yrotation
                            End Site
                            {
                              OFFSET -1.805 0 0
                            }
                          }
                        }
                      }
                    }
                    JOINT RightInHandMiddle
                    {
                      OFFSET -3.38211 0.517263 0.756737
                      CHANNELS 3 Zrotation Xrotation Yrotation
                      JOINT RightHandMiddle1
                      {
                        OFFSET -5.17411 -0.084 0.313895
                        CHANNELS 3 Zrotation Xrotation Yrotation
                        JOINT RightHandMiddle2
                        {
                          OFFSET -3.94947 0 0
                          CHANNELS 3 Zrotation Xrotation Yrotation
                          JOINT RightHandMiddle3
                          {
                            OFFSET -2.47579 0 0
                            CHANNELS 3 Zrotation Xrotation Yrotation
                            End Site
                            {
                              OFFSET -1.975 0 0
                            }
                          }
                        }
                      }
                    }
                    JOINT RightInHandRing
                    {
                      OFFSET -3.36516 0.537895 -0.128947
                      CHANNELS 3 Zrotation Xrotation Yrotation
                      JOINT RightHandRing1
                      {
                        OFFSET -4.63474 -0.022105 -0.478947
                        CHANNELS 3 Zrotation Xrotation Yrotation
                        JOINT RightHandRing2
                        {
                          OFFSET -3.44238 0 0
                          CHANNELS 3 Zrotation Xrotation Yrotation
                          JOINT RightHandRing3
                          {
                            OFFSET -2.3881 0 0
                            CHANNELS 3 Zrotation Xrotation Yrotation
                            End Site
                            {
                              OFFSET -1.857 0 0
                            }
                          }
                        }
                      }
                    }
                    JOINT RightInHandPinky
                    {
                      OFFSET -3.16105 0.469368 -1.20179
                      CHANNELS 3 Zrotation Xrotation Yrotation
                      JOINT RightHandPinky1
                      {
                        OFFSET -4.14105 -0.022105 -1.09053
                        CHANNELS 3 Zrotation Xrotation Yrotation
                        JOINT RightHandPinky2
                        {
                          OFFSET -2.75653 0 0
                          CHANNELS 3 Zrotation Xrotation Yrotation
                          JOINT RightHandPinky3
                          {
                            OFFSET -1.74189 0 0
                            CHANNELS 3 Zrotation Xrotation Yrotation
                            End Site
                            {
                              OFFSET -1.645 0 0
                            }
                          }
                        }
                      }
                    }
                  }
                }
              }
            }
            JOINT LeftShoulder
            {
              OFFSET 3.23079 6.93624 -0.032633
              CHANNELS 3 Zrotation Xrotation Yrotation
              JOINT LeftArm
              {
                OFFSET 12.8235 -0.00564763 -0.0637926
                CHANNELS 3 Zrotation Xrotation Yrotation
                JOINT LeftForeArm
                {
                  OFFSET 26.4641 -0.00020372 -0.0407631
                  CHANNELS 3 Zrotation Xrotation Yrotation
                  JOINT LeftHand
                  {
                    OFFSET 25.9912 -0.0207868 -0.0178714
                    CHANNELS 3 Zrotation Xrotation Yrotation
                    JOINT LeftHandThumb1
                    {
                      OFFSET 2.48905 0.190105 3.12053
                      CHANNELS 3 Zrotation Xrotation Yrotation
                      JOINT LeftHandThumb2
                      {
                        OFFSET 3.68274 0 0
                        CHANNELS 3 Zrotation Xrotation Yrotation
                        JOINT LeftHandThumb3
                        {
                          OFFSET 2.55832 0 0
                          CHANNELS 3 Zrotation Xrotation Yrotation
                          End Site
                          {
                            OFFSET 2.194 0 0
                          }
                        }
                      }
                    }
                    JOINT LeftInHandIndex
                    {
                      OFFSET 3.22368 0.508421 1.97842
                      CHANNELS 3 Zrotation Xrotation Yrotation
                      JOINT LeftHandIndex1
                      {
                        OFFSET 5.21684 -0.091368 0.999158
                        CHANNELS 3 Zrotation Xrotation Yrotation
                        JOINT LeftHandIndex2
                        {
                          OFFSET 3.61937 0 0
                          CHANNELS 3 Zrotation Xrotation Yrotation
                          JOINT LeftHandIndex3
                          {
                            OFFSET 2.0521 0 0
                            CHANNELS 3 Zrotation Xrotation Yrotation
                            End Site
                            {
                              OFFSET 1.805 0 0
                            }
                          }
                        }
                      }
                    }
                    JOINT LeftInHandMiddle
                    {
                      OFFSET 3.38211 0.517263 0.756737
                      CHANNELS 3 Zrotation Xrotation Yrotation
                      JOINT LeftHandMiddle1
                      {
                        OFFSET 5.17411 -0.084 0.313895
                        CHANNELS 3 Zrotation Xrotation Yrotation
                        JOINT LeftHandMiddle2
                        {
                          OFFSET 3.94947 0 0
                          CHANNELS 3 Zrotation Xrotation Yrotation
                          JOINT LeftHandMiddle3
                          {
                            OFFSET 2.47579 0 0
                            CHANNELS 3 Zrotation Xrotation Yrotation
                            End Site
                            {
                              OFFSET 1.975 0 0
                            }
                          }
                        }
                      }
                    }
                    JOINT LeftInHandRing
                    {
                      OFFSET 3.36516 0.537895 -0.128947
                      CHANNELS 3 Zrotation Xrotation Yrotation
                      JOINT LeftHandRing1
                      {
                        OFFSET 4.63474 -0.022105 -0.478947
                        CHANNELS 3 Zrotation Xrotation Yrotation
                        JOINT LeftHandRing2
                        {
                          OFFSET 3.44238 0 0
                          CHANNELS 3 Zrotation Xrotation Yrotation
                          JOINT LeftHandRing3
                          {
                            OFFSET 2.3881 0 0
                            CHANNELS 3 Zrotation Xrotation Yrotation
                            End Site
                            {
                              OFFSET 1.857 0 0
                            }
                          }
                        }
                      }
                    }
                    JOINT LeftInHandPinky
                    {
                      OFFSET 3.16105 0.469368 -1.20179
                      CHANNELS 3 Zrotation Xrotation Yrotation
                      JOINT LeftHandPinky1
                      {
                        OFFSET 4.14105 -0.022105 -1.09053
                        CHANNELS 3 Zrotation Xrotation Yrotation
                        JOINT LeftHandPinky2
                        {
                          OFFSET 2.75653 0 0
                          CHANNELS 3 Zrotation Xrotation Yrotation
                          JOINT LeftHandPinky3
                          {
                            OFFSET 1.74189 0 0
                            CHANNELS 3 Zrotation Xrotation Yrotation
                            End Site
                            {
                              OFFSET 1.645 0 0
                            }
                          }
                        }
                      }
                    }
                  }
                }
              }
            }
          }
        }
      }
    }
  }
}
MOTION
Frames: 2
Frame Time: 0.00833333
1.500000000000000000e+02 0.000000000000000000e+00 0.000000000000000000e+00 0.000000000000000000e+00 0.000000000000000000e+00 -0.000000000000000000e+00 -2.085041425007564016e-03 -6.463825306104043454e-03 2.785491274288540500e-02 -4.850264547800400838e-02 9.087517429179646500e-03 -4.121179874330571646e-02 1.597983966339342268e-02 -3.938563668039759755e-03 -3.372102993830402434e-02 -1.576191157329117840e-02 -6.418009382761347267e-04 1.397507168919330175e-02 -8.388354410762044813e-03 9.394777644189934674e-04 -7.371819031663465194e-03 -1.665029497514957518e-02 -1.492606889970555899e-02 -4.649743813689619066e-04 2.723331806606964006e-04 -1.479304059397394851e-03 -1.604073147610486505e-05 1.178064956689008113e-03 8.788806014652018883e-03 -2.251711254103619213e-03 -5.339511525705899112e-06 3.199352211820378464e-05 5.593820188068964074e-05 1.524647570758480260e-04 -2.442045230255984663e-05 -1.339681738305117465e-03 1.300057015138953931e-09 9.963783865774592598e-07 4.677355433945241341e-08 -2.340317432068314713e-08 -1.366276532141738624e-06 4.548766958595104269e-08 3.922360407078594635e-04 -1.743139600049421409e-02 -3.976468913505399076e-04 -6.111480224002800330e-04 -1.369453132884057740e-02 -2.084919840851302830e-02 1.988524243179480913e-02 -3.186155145022033855e-03 -1.537316330322822944e-02 6.684515515466058974e-03 2.173832961198999755e-02 2.234334272094619031e-02 2.358588047942027468e-04 -2.677367719436332498e-03 -8.423334697018216785e-03 0.000000000000000000e+00 0.000000000000000000e+00 0.000000000000000000e+00 -3.575788297964356248e-15 -8.584717027558732012e-15 0.000000000000000000e+00 -2.318451008021410485e-15 -7.395345421598182291e-15 0.000000000000000000e+00 3.319600599613476728e-15 -3.405300234965683261e-15 -3.222291853278921462e-15 0.000000000000000000e+00 0.000000000000000000e+00 0.000000000000000000e+00 0.000000000000000000e+00 -1.894767839017464489e-14 -5.297478019232660610e-15 0.000000000000000000e+00 -6.207462008734000253e-15 -4.163727499104224906e-14 3.319600599613476728e-15 -3.405300234965683261e-15 -3.222291853278921462e-15 0.000000000000000000e+00 -3.751981083927510943e-15 6.582642741659973093e-16 0.000000000000000000e+00 -8.651243026479736595e-15 -2.646542366021443148e-14 0.000000000000000000e+00 -1.500494355194311959e-14 -6.417981822566991922e-15 3.319600599613476728e-15 -3.405300234965683261e-15 -3.222291853278921462e-15 0.000000000000000000e+00 0.000000000000000000e+00 0.000000000000000000e+00 0.000000000000000000e+00 -4.605735972374746350e-15 -1.558643467220500771e-14 0.000000000000000000e+00 -8.333774994837648103e-15 -9.297339886752642788e-15 3.319600599613476728e-15 -3.405300234965683261e-15 -3.222291853278921462e-15 0.000000000000000000e+00 0.000000000000000000e+00 0.000000000000000000e+00 0.000000000000000000e+00 8.430117102228968431e-16 -1.363036945386944710e-14 0.000000000000000000e+00 -6.902471704473265752e-15 -1.709019337155370683e-14 1.049411752364083801e-02 -2.498727411506042675e-02 -3.697533713454931228e-03 -1.364397473148017299e-02 1.166451174939796970e-02 -2.171470633079761528e-02 6.125872245821241402e-02 -2.926843689712015084e-03 5.219996585514749543e-02 2.203953474416374403e-02 -1.702117037415055642e-02 6.747907527306249917e-04 0.000000000000000000e+00 0.000000000000000000e+00 0.000000000000000000e+00 7.304951666715184179e-15 4.696007006814487471e-15 0.000000000000000000e+00 1.295756881138539226e-15 -5.853103281120862280e-16 0.000000000000000000e+00 3.535216864192154424e-15 4.734483330651684071e-15 4.559821517367584354e-17 0.000000000000000000e+00 0.000000000000000000e+00 0.000000000000000000e+00 0.000000000000000000e+00 -5.192340652596469564e-15 1.832860053309816638e-14 0.000000000000000000e+00 -4.454150133160542014e-15 3.813575664013227232e-15 3.535216864192154424e-15 4.734483330651684071e-15 4.559821517367584354e-17 0.000000000000000000e+00 -1.000814806137408081e-14 -9.861341112556328234e-16 0.000000000000000000e+00 -3.411999593222070320e-15 3.617649995738877027e-15 0.000000000000000000e+00 -6.211864431017312084e-17 -1.355263444607515537e-14 3.535216864192154424e-15 4.734483330651684071e-15 4.559821517367584354e-17 0.000000000000000000e+00 0.000000000000000000e+00 0.000000000000000000e+00 0.000000000000000000e+00 -4.966577746596371219e-15 1.928418970487908571e-15 0.000000000000000000e+00 -5.745254568039706674e-15 7.192251032251794660e-15 3.535216864192154424e-15 4.734483330651684071e-15 4.559821517367584354e-17 0.000000000000000000e+00 0.000000000000000000e+00 0.000000000000000000e+00 0.000000000000000000e+00 -4.818379057691029556e-15 3.889736935062379703e-15 0.000000000000000000e+00 -5.169916826686868587e-15 9.109220154362902630e-15
1.500000000000000000e+02 0.000000000000000000e+00 0.000000000000000000e+00 0.000000000000000000e+00 0.000000000000000000e+00 -0.000000000000000000e+00 -2.624218090677790140e-04 -1.023660622381347219e-03 1.474158080489096660e-03 -2.727963696350984603e-03 2.168081932367979569e-04 -2.057128218267074201e-03 9.472144656211142983e-04 -1.392331433317944584e-04 -1.716606424304803610e-03 -1.757172678308390563e-03 -7.112773641173737445e-05 1.353969052555586408e-03 1.093140598488923391e-03 5.052856684986961622e-05 1.627567858959686484e-03 -2.420057891162217568e-03 -1.487421472166352296e-03 -7.869629519892988253e-05 3.664618875061191605e-04 -1.030023221529869021e-03 -6.010070149563002777e-05 3.202276936290049500e-04 7.538743294059004237e-04 5.722699153278600894e-04 -5.831422615124699514e-06 6.440871096899812207e-05 4.453557908679710276e-05 2.924765163577207512e-05 -2.984930588185518254e-05 -2.310035715200771920e-04 -9.655639288843115024e-09 3.596022320969173121e-07 4.230745044798851355e-08 -1.539952393227958292e-08 7.962031973687980916e-07 4.038707055639422997e-08 -6.801029734285659722e-04 -1.586983549659839055e-03 -6.669691305912962576e-06 -5.802796198848014265e-04 5.701844609297309621e-04 -8.003710724090404858e-04 4.127997560198303981e-03 -4.826661641866027662e-03 -3.866975852801643031e-03 -3.159079016362971448e-02 -2.709748960383498786e-02 -4.376839739137895757e-02 2.613483590164317194e-02 4.024021302589764204e-02 1.445038057265595963e-02 0.000000000000000000e+00 0.000000000000000000e+00 0.000000000000000000e+00 -3.355790858859409178e-15 2.079864555507073682e-15 0.000000000000000000e+00 3.348490934042033284e-15 1.280148635896631882e-15 0.000000000000000000e+00 -1.022394976460508839e-15 -1.806219172274522395e-15 -1.902205953379489328e-15 0.000000000000000000e+00 0.000000000000000000e+00 0.000000000000000000e+00 0.000000000000000000e+00 2.665997346324594507e-15 -1.222753965497843802e-14 0.000000000000000000e+00 3.408972168694325410e-15 3.260059176741509960e-15 -1.022394976460508839e-15 -1.806219172274522395e-15 -1.902205953379489328e-15 0.000000000000000000e+00 -5.529893775770247459e-15 2.931625797127409792e-16 0.000000000000000000e+00 3.022819242555459504e-15 -9.132203762764871173e-15 0.000000000000000000e+00 -1.291124078093100949e-16 -2.782403134943429442e-15 -1.022394976460508839e-15 -1.806219172274522395e-15 -1.902205953379489328e-15 0.000000000000000000e+00 0.000000000000000000e+00 0.000000000000000000e+00 0.000000000000000000e+00 -9.503517118108207795e-16 -1.180663804843732497e-14 0.000000000000000000e+00 -3.463961499936860078e-15 -2.203182297227447786e-15 -1.022394976460508839e-15 -1.806219172274522395e-15 -1.902205953379489328e-15 0.000000000000000000e+00 0.000000000000000000e+00 0.000000000000000000e+00 0.000000000000000000e+00 -2.012799853435058047e-15 -9.175908615959616844e-15 0.000000000000000000e+00 7.487975039224027061e-16 -5.050723686348582453e-15 3.711395049092259049e-05 -1.891302055308870852e-03 -3.836276750002449803e-04 2.035019894239763205e-02 1.409027528600166265e-02 -2.667118367453967520e-02 2.126330653778862045e-01 -1.071101416070474946e-02 2.047127528041350342e-01 1.873706318177087481e-03 -1.300625402402593367e-04 5.099389043505027640e-05 0.000000000000000000e+00 0.000000000000000000e+00 0.000000000000000000e+00 3.512776487366877060e-15 -6.535235905793568646e-17 0.000000000000000000e+00 -6.031044518282739991e-15 -2.686649718065371517e-15 0.000000000000000000e+00 -1.102563770536414396e-15 5.985019586596146100e-15 2.451034794148303007e-15 0.000000000000000000e+00 0.000000000000000000e+00 0.000000000000000000e+00 0.000000000000000000e+00 -7.813279759850985229e-16 1.802763753334561931e-16 0.000000000000000000e+00 -1.607897733808965943e-15 8.838599777308955372e-15 -1.102563770536414396e-15 5.985019586596146100e-15 2.451034794148303007e-15 0.000000000000000000e+00 -7.348227871552035199e-15 -4.853194326271629078e-15 0.000000000000000000e+00 5.431328733531364316e-15 3.495082917540639209e-16 0.000000000000000000e+00 8.757052589965168145e-16 -1.144721804989116344e-15 -1.102563770536414396e-15 5.985019586596146100e-15 2.451034794148303007e-15 0.000000000000000000e+00 0.000000000000000000e+00 0.000000000000000000e+00 0.000000000000000000e+00 2.062746507859277311e-15 3.499192185512046428e-15 0.000000000000000000e+00 -2.662310544386550567e-15 -7.847068951538949415e-15 -1.102563770536414396e-15 5.985019586596146100e-15 2.451034794148303007e-15 0.000000000000000000e+00 0.000000000000000000e+00 0.000000000000000000e+00 0.000000000000000000e+00 -1.345206384835106852e-15 -2.492806493543149245e-15 0.000000000000000000e+00 -2.601092119581657045e-15 -4.202817305406064985e-15
